<svg width="58" height="58" viewBox="0 0 58 58" fill="none" xmlns="http://www.w3.org/2000/svg">
<g filter="url(#filter0_d_1061_431)">
<path d="M46.7136 7.27513C44.41 4.95995 41.6663 3.12431 38.6423 1.87527C35.6183 0.626233 32.3747 -0.0112003 29.1005 0.000148924C15.3819 0.000148924 4.20101 11.1251 4.20101 24.7751C4.20101 29.1501 5.35678 33.4001 7.51759 37.15L4 50L17.191 46.55C20.8342 48.525 24.9296 49.575 29.1005 49.575C42.8191 49.575 54 38.45 54 24.8001C54 18.1751 51.4121 11.9501 46.7136 7.27513ZM29.1005 45.375C25.3819 45.375 21.7387 44.375 18.5477 42.5L17.794 42.05L9.95477 44.1L12.0402 36.5L11.5377 35.725C9.47172 32.4425 8.37472 28.6482 8.37186 24.7751C8.37186 13.4251 17.6683 4.17514 29.0754 4.17514C34.603 4.17514 39.804 6.32513 43.6985 10.2251C45.6268 12.135 47.155 14.4068 48.1945 16.9087C49.2339 19.4106 49.7639 22.0929 49.7538 24.8001C49.804 36.15 40.5075 45.375 29.1005 45.375ZM40.4573 29.9751C39.8291 29.6751 36.7638 28.1751 36.2111 27.9501C35.6332 27.7501 35.2312 27.6501 34.804 28.2501C34.3769 28.8751 33.196 30.2751 32.8442 30.6751C32.4925 31.1001 32.1156 31.1501 31.4874 30.8251C30.8593 30.5251 28.8492 29.8501 26.4874 27.7501C24.6281 26.1001 23.397 24.0751 23.0201 23.4501C22.6683 22.8251 22.9698 22.5001 23.2965 22.1751C23.5729 21.9001 23.9246 21.4501 24.2261 21.1001C24.5276 20.7501 24.6533 20.4751 24.8543 20.0751C25.0553 19.6501 24.9548 19.3001 24.804 19.0001C24.6533 18.7001 23.397 15.6501 22.8945 14.4001C22.392 13.2001 21.8643 13.3501 21.4874 13.3251H20.2814C19.8543 13.3251 19.201 13.4751 18.6231 14.1001C18.0703 14.7251 16.4623 16.2251 16.4623 19.2751C16.4623 22.3251 18.6985 25.2751 19 25.6751C19.3015 26.1001 23.397 32.3501 29.6281 35.025C31.1105 35.675 32.2663 36.05 33.1709 36.325C34.6533 36.8 36.01 36.725 37.0905 36.575C38.2965 36.4 40.7839 35.075 41.2864 33.625C41.8141 32.1751 41.8141 30.9501 41.6382 30.6751C41.4623 30.4001 41.0854 30.2751 40.4573 29.9751Z" fill="#D0D0D0"/>
</g>
<defs>
<filter id="filter0_d_1061_431" x="0" y="0" width="58" height="58" filterUnits="userSpaceOnUse" color-interpolation-filters="sRGB">
<feFlood flood-opacity="0" result="BackgroundImageFix"/>
<feColorMatrix in="SourceAlpha" type="matrix" values="0 0 0 0 0 0 0 0 0 0 0 0 0 0 0 0 0 0 127 0" result="hardAlpha"/>
<feOffset dy="4"/>
<feGaussianBlur stdDeviation="2"/>
<feComposite in2="hardAlpha" operator="out"/>
<feColorMatrix type="matrix" values="0 0 0 0 0 0 0 0 0 0 0 0 0 0 0 0 0 0 0.25 0"/>
<feBlend mode="normal" in2="BackgroundImageFix" result="effect1_dropShadow_1061_431"/>
<feBlend mode="normal" in="SourceGraphic" in2="effect1_dropShadow_1061_431" result="shape"/>
</filter>
</defs>
</svg>
