<svg width="53" height="53" viewBox="0 0 53 53" fill="none" xmlns="http://www.w3.org/2000/svg">
<path fill-rule="evenodd" clip-rule="evenodd" d="M5.25 26.25C5.25038 22.2087 6.41685 18.2533 8.60944 14.8585C10.802 11.4637 13.9276 8.77365 17.6111 7.11116C21.2947 5.44867 25.3797 4.88435 29.3759 5.48592C33.3722 6.08749 37.1101 7.82939 40.1409 10.5026C43.1718 13.1758 45.3669 16.6668 46.463 20.5567C47.559 24.4465 47.5093 28.57 46.32 32.4323C45.1306 36.2947 42.852 39.7318 39.7577 42.3312C36.6633 44.9307 32.8846 46.5821 28.875 47.0872V31.5H34.125C34.8212 31.5 35.4889 31.2234 35.9812 30.7312C36.4734 30.2389 36.75 29.5712 36.75 28.875C36.75 28.1788 36.4734 27.5111 35.9812 27.0188C35.4889 26.5266 34.8212 26.25 34.125 26.25H28.875V21C28.875 20.3038 29.1516 19.6361 29.6438 19.1438C30.1361 18.6516 30.8038 18.375 31.5 18.375H32.8125C33.5087 18.375 34.1764 18.0984 34.6687 17.6062C35.1609 17.1139 35.4375 16.4462 35.4375 15.75C35.4375 15.0538 35.1609 14.3861 34.6687 13.8938C34.1764 13.4016 33.5087 13.125 32.8125 13.125H31.5C29.4114 13.125 27.4084 13.9547 25.9315 15.4315C24.4547 16.9084 23.625 18.9114 23.625 21V26.25H18.375C17.6788 26.25 17.0111 26.5266 16.5188 27.0188C16.0266 27.5111 15.75 28.1788 15.75 28.875C15.75 29.5712 16.0266 30.2389 16.5188 30.7312C17.0111 31.2234 17.6788 31.5 18.375 31.5H23.625V47.0872C18.5501 46.4473 13.8832 43.9773 10.5 40.1408C7.11687 36.3044 5.25009 31.3651 5.25 26.25ZM26.25 52.5C40.7479 52.5 52.5 40.7479 52.5 26.25C52.5 11.7521 40.7479 0 26.25 0C11.7521 0 0 11.7521 0 26.25C0 40.7479 11.7521 52.5 26.25 52.5Z" fill="#D0D0D0"/>
</svg>
